<svg width="400" height="400" viewBox="0 0 400 400" xmlns="http://www.w3.org/2000/svg" role="img" aria-labelledby="title desc">
  <title>Flora Elegance logo</title>
  <desc>Monogramă FE cu cerc elegant și text Flora Elegance</desc>
  <defs>
    <linearGradient id="bg" x1="0%" y1="0%" x2="100%" y2="100%">
      <stop offset="0%" stop-color="#f8eef0"/>
      <stop offset="100%" stop-color="#f4e4e6"/>
    </linearGradient>
    <linearGradient id="rose" x1="0%" y1="0%" x2="100%" y2="100%">
      <stop offset="0%" stop-color="#d8b4b9"/>
      <stop offset="100%" stop-color="#c89e9e"/>
    </linearGradient>
  </defs>
  <rect width="400" height="400" rx="32" fill="url(#bg)"/>
  <circle cx="200" cy="190" r="132" fill="none" stroke="#b99b96" stroke-width="12"/>
  <g opacity="0.95">
    <path d="M248 150c0 18-14 32-32 32s-32-14-32-32 14-32 32-32 32 14 32 32z" fill="#d9b7b3"/>
    <path d="M246 148c0 12-9 21-21 21s-21-9-21-21 9-21 21-21 21 9 21 21z" fill="#f8f1f2"/>
    <path d="M150 96c18 8 34 26 29 45-5 19-26 36-46 32-19-4-34-23-30-42 4-19 27-34 47-35z" fill="#d8b4b9"/>
    <path d="M145 100c12 7 23 20 19 33-4 13-17 23-30 19-13-4-23-17-19-30 4-13 14-22 30-22z" fill="#f8f1f2"/>
  </g>
  <text x="200" y="207" text-anchor="middle" font-family="Georgia, serif" font-size="86" fill="#5f4a4b" letter-spacing="-4">FE</text>
  <text x="200" y="260" text-anchor="middle" font-family="Arial, sans-serif" font-size="24" fill="#6e5456" letter-spacing="2">FLORA ELEGANCE</text>
  <text x="200" y="290" text-anchor="middle" font-family="Arial, sans-serif" font-size="14" fill="#8b6c6f" letter-spacing="1.5">NATURA CU RAFINAMENT</text>
</svg>